<svg
    id="icon-arrow-right-to-bracket"
    height="1em"
    viewBox="0 0 20 20"
    xmlns="http://www.w3.org/2000/svg">
  <path
      d="m15.923 12.382c.1011-.2446.1011-.5194 0-.764-.0499-.122-.1237-.2329-.217-.326l-4-4c-.0922-.09551-.2026-.17169-.3246-.2241s-.2532-.08-.386-.08115-.2645.02415-.3874.07443-.2345.12453-.3284.21842c-.0939.0939-.1681.20555-.2184.32845-.0503.12289-.0756.25457-.07445.38735s.02875.264.08115.386c.0524.12201.1286.23235.2241.3246l2.294 2.294h-8.586c-.26522 0-.51957.1054-.70711.2929-.18753.1875-.29289.4419-.29289.7071s.10536.5196.29289.7071c.18754.1875.44189.2929.70711.2929h8.586l-2.293 2.293c-.0955.0922-.1717.2026-.2241.3246s-.08.2532-.08115.386.02415.2645.07445.3874c.0503.1228.1245.2345.2184.3284s.2055.1681.3284.2184.2546.0756.3874.0745c.1328-.0012.264-.0288.386-.0812s.2324-.1286.3246-.2241l4-4c.0928-.0929.1663-.2034.216-.325z"/>
  <path
      d="m18 4h-3c-.2652 0-.5196.10536-.7071.29289-.1875.18754-.2929.44189-.2929.70711s.1054.51957.2929.70711c.1875.18753.4419.29289.7071.29289h3c.2652 0 .5196.10536.7071.29289.1875.18754.2929.44189.2929.70711v10c0 .2652-.1054.5196-.2929.7071s-.4419.2929-.7071.2929h-3c-.2652 0-.5196.1054-.7071.2929s-.2929.4419-.2929.7071.1054.5196.2929.7071.4419.2929.7071.2929h3c.7956 0 1.5587-.3161 2.1213-.8787s.8787-1.3257.8787-2.1213v-10c0-.79565-.3161-1.55871-.8787-2.12132s-1.3257-.87868-2.1213-.87868z"/>
</svg>